<?xml version="1.0" encoding="UTF-8"?>
<svg id="Layer_2" data-name="Layer 2" xmlns="http://www.w3.org/2000/svg" viewBox="0 0 127.07 147.5">
  <defs>
    <style>
      .cls-1 {
        fill: #10b981;
      }

      .cls-1, .cls-2 {
        stroke-width: 0px;
      }

      .cls-2 {
        fill: #fff;
      }
    </style>
  </defs>
  <path class="cls-1" d="M51.02,34.31h33.65c2.12,0,3.85,1.54,3.85,3.43v30.05c0,3.06-4.14,4.59-6.56,2.43l-33.65-30.05c-2.42-2.16-.71-5.86,2.72-5.86Z"/>
  <path class="cls-2" d="M103.26,68.76l-10.45,10.45c-3.08,3.08-3.08,8.08,0,11.17,3.08,3.08,8.08,3.08,11.17,0l10.45-10.45c3.8-3.8,5.9-8.86,5.9-14.24V23.18c0-11.1-9.03-20.13-20.13-20.13h-50.83c-5.38,0-10.43,2.09-14.24,5.9l-17.85,17.85c-7.85,7.85-7.85,20.62,0,28.47l22.01,22.01-26.16,26.16c-3.8,3.8-5.9,8.86-5.9,14.23v21.72c0,4.36,3.54,7.9,7.9,7.9s7.9-3.54,7.9-7.9v-21.72c0-1.16.45-2.25,1.27-3.07l26.16-26.16,53.8,53.8c1.54,1.54,3.56,2.31,5.58,2.31s4.04-.77,5.58-2.31c3.08-3.08,3.08-8.09,0-11.17L28.45,44.09c-1.69-1.69-1.69-4.44,0-6.13l17.85-17.85c.82-.82,1.91-1.27,3.07-1.27h50.83c2.39,0,4.34,1.95,4.34,4.34v42.52c0,1.16-.45,2.25-1.27,3.07Z"/>
</svg>